<?xml version="1.0" encoding="UTF-8" standalone="no"?>
<!-- This is a Stata 16.0 generated SVG file (http://www.stata.com) -->

<svg version="1.1" width="8.00in" height="7.00in" viewBox="0 0 5760 5040" xmlns="http://www.w3.org/2000/svg" xmlns:xlink="http://www.w3.org/1999/xlink">
	<desc>Stata Graph - diff</desc>
	<rect x="0" y="0" width="5760" height="5040" style="fill:#FFFFFF;stroke:none"/>
	<rect x="0.00" y="0.00" width="5760.00" height="5040.00" style="fill:#FFFFFF"/>
	<rect x="5.04" y="5.04" width="5749.92" height="5029.92" style="fill:none;stroke:#FFFFFF;stroke-width:10.08"/>
	<rect x="201.06" y="386.46" width="5387.58" height="772.74" style="fill:#FFFFFF"/>
	<rect x="205.34" y="390.74" width="5379.01" height="764.17" style="fill:none;stroke:#FFFFFF;stroke-width:8.57"/>
	<line x1="295.38" y1="1064.88" x2="295.38" y2="480.60" style="stroke:#C0C0C0;stroke-width:12.85"/>
	<line x1="1595.16" y1="1064.88" x2="1595.16" y2="480.60" style="stroke:#C0C0C0;stroke-width:12.85"/>
	<line x1="2894.94" y1="1064.88" x2="2894.94" y2="480.60" style="stroke:#C0C0C0;stroke-width:12.85"/>
	<line x1="4194.72" y1="1064.88" x2="4194.72" y2="480.60" style="stroke:#C0C0C0;stroke-width:12.85"/>
	<line x1="5494.32" y1="1064.88" x2="5494.32" y2="480.60" style="stroke:#C0C0C0;stroke-width:12.85"/>
	<rect x="201.06" y="1495.08" width="5387.58" height="772.74" style="fill:#FFFFFF"/>
	<rect x="205.34" y="1499.36" width="5379.01" height="764.17" style="fill:none;stroke:#FFFFFF;stroke-width:8.57"/>
	<line x1="295.38" y1="2173.68" x2="295.38" y2="1589.40" style="stroke:#C0C0C0;stroke-width:12.85"/>
	<line x1="1595.16" y1="2173.68" x2="1595.16" y2="1589.40" style="stroke:#C0C0C0;stroke-width:12.85"/>
	<line x1="2894.94" y1="2173.68" x2="2894.94" y2="1589.40" style="stroke:#C0C0C0;stroke-width:12.85"/>
	<line x1="4194.72" y1="2173.68" x2="4194.72" y2="1589.40" style="stroke:#C0C0C0;stroke-width:12.85"/>
	<line x1="5494.32" y1="2173.68" x2="5494.32" y2="1589.40" style="stroke:#C0C0C0;stroke-width:12.85"/>
	<rect x="201.06" y="2603.88" width="5387.58" height="772.74" style="fill:#FFFFFF"/>
	<rect x="205.34" y="2608.16" width="5379.01" height="764.17" style="fill:none;stroke:#FFFFFF;stroke-width:8.57"/>
	<line x1="295.38" y1="3282.48" x2="295.38" y2="2698.20" style="stroke:#C0C0C0;stroke-width:12.85"/>
	<line x1="1595.16" y1="3282.48" x2="1595.16" y2="2698.20" style="stroke:#C0C0C0;stroke-width:12.85"/>
	<line x1="2894.94" y1="3282.48" x2="2894.94" y2="2698.20" style="stroke:#C0C0C0;stroke-width:12.85"/>
	<line x1="4194.72" y1="3282.48" x2="4194.72" y2="2698.20" style="stroke:#C0C0C0;stroke-width:12.85"/>
	<line x1="5494.32" y1="3282.48" x2="5494.32" y2="2698.20" style="stroke:#C0C0C0;stroke-width:12.85"/>
	<rect x="201.06" y="3712.68" width="5387.58" height="772.74" style="fill:#FFFFFF"/>
	<rect x="205.34" y="3716.96" width="5379.01" height="764.17" style="fill:none;stroke:#FFFFFF;stroke-width:8.57"/>
	<line x1="295.38" y1="4391.10" x2="295.38" y2="3806.82" style="stroke:#C0C0C0;stroke-width:12.85"/>
	<line x1="1595.16" y1="4391.10" x2="1595.16" y2="3806.82" style="stroke:#C0C0C0;stroke-width:12.85"/>
	<line x1="2894.94" y1="4391.10" x2="2894.94" y2="3806.82" style="stroke:#C0C0C0;stroke-width:12.85"/>
	<line x1="4194.72" y1="4391.10" x2="4194.72" y2="3806.82" style="stroke:#C0C0C0;stroke-width:12.85"/>
	<line x1="5494.32" y1="4391.10" x2="5494.32" y2="3806.82" style="stroke:#C0C0C0;stroke-width:12.85"/>
	<rect x="379.44" y="1064.34" width="104.04" height="0.54" style="fill:#FFFFFF"/>
	<rect x="383.72" y="1068.62" width="95.47" height="-8.03" style="fill:none;stroke:#808080;stroke-width:8.57"/>
	<rect x="483.48" y="1064.34" width="104.04" height="0.54" style="fill:#FFFFFF"/>
	<rect x="487.76" y="1068.62" width="95.47" height="-8.03" style="fill:none;stroke:#808080;stroke-width:8.57"/>
	<rect x="691.38" y="1063.80" width="104.04" height="1.08" style="fill:#FFFFFF"/>
	<rect x="695.66" y="1068.08" width="95.47" height="-7.49" style="fill:none;stroke:#808080;stroke-width:8.57"/>
	<rect x="795.42" y="1061.28" width="104.04" height="3.60" style="fill:#FFFFFF"/>
	<rect x="799.70" y="1065.56" width="95.47" height="-4.97" style="fill:none;stroke:#808080;stroke-width:8.57"/>
	<rect x="899.46" y="1059.66" width="103.86" height="5.22" style="fill:#FFFFFF"/>
	<rect x="903.74" y="1063.94" width="95.29" height="-3.35" style="fill:none;stroke:#808080;stroke-width:8.57"/>
	<rect x="1003.32" y="1060.20" width="104.04" height="4.68" style="fill:#FFFFFF"/>
	<rect x="1007.60" y="1064.48" width="95.47" height="-3.89" style="fill:none;stroke:#808080;stroke-width:8.57"/>
	<rect x="1107.36" y="1058.22" width="104.04" height="6.66" style="fill:#FFFFFF"/>
	<rect x="1111.64" y="1062.50" width="95.47" height="-1.91" style="fill:none;stroke:#808080;stroke-width:8.57"/>
	<rect x="1211.40" y="1051.02" width="103.86" height="13.86" style="fill:#FFFFFF"/>
	<rect x="1215.68" y="1055.30" width="95.29" height="5.29" style="fill:none;stroke:#808080;stroke-width:8.57"/>
	<rect x="1315.26" y="1042.20" width="104.04" height="22.68" style="fill:#FFFFFF"/>
	<rect x="1319.54" y="1046.48" width="95.47" height="14.11" style="fill:none;stroke:#808080;stroke-width:8.57"/>
	<rect x="1419.30" y="1030.32" width="104.04" height="34.56" style="fill:#FFFFFF"/>
	<rect x="1423.58" y="1034.60" width="95.47" height="25.99" style="fill:none;stroke:#808080;stroke-width:8.57"/>
	<rect x="1523.34" y="1021.50" width="103.86" height="43.38" style="fill:#FFFFFF"/>
	<rect x="1527.62" y="1025.78" width="95.29" height="34.81" style="fill:none;stroke:#808080;stroke-width:8.57"/>
	<rect x="1627.20" y="1007.64" width="104.04" height="57.24" style="fill:#FFFFFF"/>
	<rect x="1631.48" y="1011.92" width="95.47" height="48.67" style="fill:none;stroke:#808080;stroke-width:8.57"/>
	<rect x="1731.24" y="992.16" width="104.04" height="72.72" style="fill:#FFFFFF"/>
	<rect x="1735.52" y="996.44" width="95.47" height="64.15" style="fill:none;stroke:#808080;stroke-width:8.57"/>
	<rect x="1835.28" y="961.74" width="103.86" height="103.14" style="fill:#FFFFFF"/>
	<rect x="1839.56" y="966.02" width="95.29" height="94.57" style="fill:none;stroke:#808080;stroke-width:8.57"/>
	<rect x="1939.14" y="930.78" width="104.04" height="134.10" style="fill:#FFFFFF"/>
	<rect x="1943.42" y="935.06" width="95.47" height="125.53" style="fill:none;stroke:#808080;stroke-width:8.57"/>
	<rect x="2043.18" y="911.16" width="104.04" height="153.72" style="fill:#FFFFFF"/>
	<rect x="2047.46" y="915.44" width="95.47" height="145.15" style="fill:none;stroke:#808080;stroke-width:8.57"/>
	<rect x="2147.22" y="871.56" width="103.86" height="193.32" style="fill:#FFFFFF"/>
	<rect x="2151.50" y="875.84" width="95.29" height="184.75" style="fill:none;stroke:#808080;stroke-width:8.57"/>
	<rect x="2251.08" y="837.00" width="104.04" height="227.88" style="fill:#FFFFFF"/>
	<rect x="2255.36" y="841.28" width="95.47" height="219.31" style="fill:none;stroke:#808080;stroke-width:8.57"/>
	<rect x="2355.12" y="803.88" width="104.04" height="261.00" style="fill:#FFFFFF"/>
	<rect x="2359.40" y="808.16" width="95.47" height="252.43" style="fill:none;stroke:#808080;stroke-width:8.57"/>
	<rect x="2459.16" y="796.32" width="103.86" height="268.56" style="fill:#FFFFFF"/>
	<rect x="2463.44" y="800.60" width="95.29" height="259.99" style="fill:none;stroke:#808080;stroke-width:8.57"/>
	<rect x="2563.02" y="777.60" width="104.04" height="287.28" style="fill:#FFFFFF"/>
	<rect x="2567.30" y="781.88" width="95.47" height="278.71" style="fill:none;stroke:#808080;stroke-width:8.57"/>
	<rect x="2667.06" y="754.92" width="104.04" height="309.96" style="fill:#FFFFFF"/>
	<rect x="2671.34" y="759.20" width="95.47" height="301.39" style="fill:none;stroke:#808080;stroke-width:8.57"/>
	<rect x="2771.10" y="745.20" width="103.86" height="319.68" style="fill:#FFFFFF"/>
	<rect x="2775.38" y="749.48" width="95.29" height="311.11" style="fill:none;stroke:#808080;stroke-width:8.57"/>
	<rect x="2874.96" y="743.04" width="104.04" height="321.84" style="fill:#FFFFFF"/>
	<rect x="2879.24" y="747.32" width="95.47" height="313.27" style="fill:none;stroke:#808080;stroke-width:8.57"/>
	<rect x="2979.00" y="745.74" width="104.04" height="319.14" style="fill:#FFFFFF"/>
	<rect x="2983.28" y="750.02" width="95.47" height="310.57" style="fill:none;stroke:#808080;stroke-width:8.57"/>
	<rect x="3083.04" y="778.68" width="103.86" height="286.20" style="fill:#FFFFFF"/>
	<rect x="3087.32" y="782.96" width="95.29" height="277.63" style="fill:none;stroke:#808080;stroke-width:8.57"/>
	<rect x="3186.90" y="780.84" width="104.04" height="284.04" style="fill:#FFFFFF"/>
	<rect x="3191.18" y="785.12" width="95.47" height="275.47" style="fill:none;stroke:#808080;stroke-width:8.57"/>
	<rect x="3290.94" y="809.10" width="104.04" height="255.78" style="fill:#FFFFFF"/>
	<rect x="3295.22" y="813.38" width="95.47" height="247.21" style="fill:none;stroke:#808080;stroke-width:8.57"/>
	<rect x="3394.98" y="832.32" width="104.04" height="232.56" style="fill:#FFFFFF"/>
	<rect x="3399.26" y="836.60" width="95.47" height="223.99" style="fill:none;stroke:#808080;stroke-width:8.57"/>
	<rect x="3499.02" y="867.42" width="103.86" height="197.46" style="fill:#FFFFFF"/>
	<rect x="3503.30" y="871.70" width="95.29" height="188.89" style="fill:none;stroke:#808080;stroke-width:8.57"/>
	<rect x="3602.88" y="906.12" width="104.04" height="158.76" style="fill:#FFFFFF"/>
	<rect x="3607.16" y="910.40" width="95.47" height="150.19" style="fill:none;stroke:#808080;stroke-width:8.57"/>
	<rect x="3706.92" y="927.72" width="104.04" height="137.16" style="fill:#FFFFFF"/>
	<rect x="3711.20" y="932.00" width="95.47" height="128.59" style="fill:none;stroke:#808080;stroke-width:8.57"/>
	<rect x="3810.96" y="952.56" width="103.86" height="112.32" style="fill:#FFFFFF"/>
	<rect x="3815.24" y="956.84" width="95.29" height="103.75" style="fill:none;stroke:#808080;stroke-width:8.57"/>
	<rect x="3914.82" y="975.60" width="104.04" height="89.28" style="fill:#FFFFFF"/>
	<rect x="3919.10" y="979.88" width="95.47" height="80.71" style="fill:none;stroke:#808080;stroke-width:8.57"/>
	<rect x="4018.86" y="990.18" width="104.04" height="74.70" style="fill:#FFFFFF"/>
	<rect x="4023.14" y="994.46" width="95.47" height="66.13" style="fill:none;stroke:#808080;stroke-width:8.57"/>
	<rect x="4122.90" y="1011.78" width="103.86" height="53.10" style="fill:#FFFFFF"/>
	<rect x="4127.18" y="1016.06" width="95.29" height="44.53" style="fill:none;stroke:#808080;stroke-width:8.57"/>
	<rect x="4226.76" y="1025.64" width="104.04" height="39.24" style="fill:#FFFFFF"/>
	<rect x="4231.04" y="1029.92" width="95.47" height="30.67" style="fill:none;stroke:#808080;stroke-width:8.57"/>
	<rect x="4330.80" y="1039.68" width="104.04" height="25.20" style="fill:#FFFFFF"/>
	<rect x="4335.08" y="1043.96" width="95.47" height="16.63" style="fill:none;stroke:#808080;stroke-width:8.57"/>
	<rect x="4434.84" y="1048.32" width="103.86" height="16.56" style="fill:#FFFFFF"/>
	<rect x="4439.12" y="1052.60" width="95.29" height="7.99" style="fill:none;stroke:#808080;stroke-width:8.57"/>
	<rect x="4538.70" y="1051.92" width="104.04" height="12.96" style="fill:#FFFFFF"/>
	<rect x="4542.98" y="1056.20" width="95.47" height="4.39" style="fill:none;stroke:#808080;stroke-width:8.57"/>
	<rect x="4642.74" y="1058.76" width="104.04" height="6.12" style="fill:#FFFFFF"/>
	<rect x="4647.02" y="1063.04" width="95.47" height="-2.45" style="fill:none;stroke:#808080;stroke-width:8.57"/>
	<rect x="4746.78" y="1060.74" width="103.86" height="4.14" style="fill:#FFFFFF"/>
	<rect x="4751.06" y="1065.02" width="95.29" height="-4.43" style="fill:none;stroke:#808080;stroke-width:8.57"/>
	<rect x="4850.64" y="1060.74" width="104.04" height="4.14" style="fill:#FFFFFF"/>
	<rect x="4854.92" y="1065.02" width="95.47" height="-4.43" style="fill:none;stroke:#808080;stroke-width:8.57"/>
	<rect x="4954.68" y="1063.80" width="104.04" height="1.08" style="fill:#FFFFFF"/>
	<rect x="4958.96" y="1068.08" width="95.47" height="-7.49" style="fill:none;stroke:#808080;stroke-width:8.57"/>
	<rect x="5058.72" y="1064.34" width="103.86" height="0.54" style="fill:#FFFFFF"/>
	<rect x="5063.00" y="1068.62" width="95.29" height="-8.03" style="fill:none;stroke:#808080;stroke-width:8.57"/>
	<rect x="5266.62" y="1064.34" width="104.04" height="0.54" style="fill:#FFFFFF"/>
	<rect x="5270.90" y="1068.62" width="95.47" height="-8.03" style="fill:none;stroke:#808080;stroke-width:8.57"/>
	<rect x="1550.52" y="2171.52" width="103.86" height="2.16" style="fill:#FFFFFF"/>
	<rect x="1554.80" y="2175.80" width="95.29" height="-6.41" style="fill:none;stroke:#808080;stroke-width:8.57"/>
	<rect x="1654.38" y="2170.08" width="104.04" height="3.60" style="fill:#FFFFFF"/>
	<rect x="1658.66" y="2174.36" width="95.47" height="-4.97" style="fill:none;stroke:#808080;stroke-width:8.57"/>
	<rect x="1758.42" y="2167.02" width="104.04" height="6.66" style="fill:#FFFFFF"/>
	<rect x="1762.70" y="2171.30" width="95.47" height="-1.91" style="fill:none;stroke:#808080;stroke-width:8.57"/>
	<rect x="1862.46" y="2159.28" width="103.86" height="14.40" style="fill:#FFFFFF"/>
	<rect x="1866.74" y="2163.56" width="95.29" height="5.83" style="fill:none;stroke:#808080;stroke-width:8.57"/>
	<rect x="1966.32" y="2140.56" width="104.04" height="33.12" style="fill:#FFFFFF"/>
	<rect x="1970.60" y="2144.84" width="95.47" height="24.55" style="fill:none;stroke:#808080;stroke-width:8.57"/>
	<rect x="2070.36" y="2102.94" width="104.04" height="70.74" style="fill:#FFFFFF"/>
	<rect x="2074.64" y="2107.22" width="95.47" height="62.17" style="fill:none;stroke:#808080;stroke-width:8.57"/>
	<rect x="2174.40" y="2050.38" width="103.86" height="123.30" style="fill:#FFFFFF"/>
	<rect x="2178.68" y="2054.66" width="95.29" height="114.73" style="fill:none;stroke:#808080;stroke-width:8.57"/>
	<rect x="2278.26" y="1998.36" width="104.04" height="175.32" style="fill:#FFFFFF"/>
	<rect x="2282.54" y="2002.64" width="95.47" height="166.75" style="fill:none;stroke:#808080;stroke-width:8.57"/>
	<rect x="2382.30" y="1907.10" width="104.04" height="266.58" style="fill:#FFFFFF"/>
	<rect x="2386.58" y="1911.38" width="95.47" height="258.01" style="fill:none;stroke:#808080;stroke-width:8.57"/>
	<rect x="2486.34" y="1817.82" width="103.86" height="355.86" style="fill:#FFFFFF"/>
	<rect x="2490.62" y="1822.10" width="95.29" height="347.29" style="fill:none;stroke:#808080;stroke-width:8.57"/>
	<rect x="2590.20" y="1743.12" width="104.04" height="430.56" style="fill:#FFFFFF"/>
	<rect x="2594.48" y="1747.40" width="95.47" height="421.99" style="fill:none;stroke:#808080;stroke-width:8.57"/>
	<rect x="2694.24" y="1622.34" width="104.04" height="551.34" style="fill:#FFFFFF"/>
	<rect x="2698.52" y="1626.62" width="95.47" height="542.77" style="fill:none;stroke:#808080;stroke-width:8.57"/>
	<rect x="2798.28" y="1603.80" width="103.86" height="569.88" style="fill:#FFFFFF"/>
	<rect x="2802.56" y="1608.08" width="95.29" height="561.31" style="fill:none;stroke:#808080;stroke-width:8.57"/>
	<rect x="2902.14" y="1601.28" width="104.04" height="572.40" style="fill:#FFFFFF"/>
	<rect x="2906.42" y="1605.56" width="95.47" height="563.83" style="fill:none;stroke:#808080;stroke-width:8.57"/>
	<rect x="3006.18" y="1625.94" width="104.04" height="547.74" style="fill:#FFFFFF"/>
	<rect x="3010.46" y="1630.22" width="95.47" height="539.17" style="fill:none;stroke:#808080;stroke-width:8.57"/>
	<rect x="3110.22" y="1699.20" width="103.86" height="474.48" style="fill:#FFFFFF"/>
	<rect x="3114.50" y="1703.48" width="95.29" height="465.91" style="fill:none;stroke:#808080;stroke-width:8.57"/>
	<rect x="3214.08" y="1845.72" width="104.04" height="327.96" style="fill:#FFFFFF"/>
	<rect x="3218.36" y="1850.00" width="95.47" height="319.39" style="fill:none;stroke:#808080;stroke-width:8.57"/>
	<rect x="3318.12" y="1924.02" width="104.04" height="249.66" style="fill:#FFFFFF"/>
	<rect x="3322.40" y="1928.30" width="95.47" height="241.09" style="fill:none;stroke:#808080;stroke-width:8.57"/>
	<rect x="3422.16" y="2005.02" width="103.86" height="168.66" style="fill:#FFFFFF"/>
	<rect x="3426.44" y="2009.30" width="95.29" height="160.09" style="fill:none;stroke:#808080;stroke-width:8.57"/>
	<rect x="3526.02" y="2064.24" width="104.04" height="109.44" style="fill:#FFFFFF"/>
	<rect x="3530.30" y="2068.52" width="95.47" height="100.87" style="fill:none;stroke:#808080;stroke-width:8.57"/>
	<rect x="3630.06" y="2122.56" width="104.04" height="51.12" style="fill:#FFFFFF"/>
	<rect x="3634.34" y="2126.84" width="95.47" height="42.55" style="fill:none;stroke:#808080;stroke-width:8.57"/>
	<rect x="3734.10" y="2143.80" width="103.86" height="29.88" style="fill:#FFFFFF"/>
	<rect x="3738.38" y="2148.08" width="95.29" height="21.31" style="fill:none;stroke:#808080;stroke-width:8.57"/>
	<rect x="3837.96" y="2160.18" width="104.04" height="13.50" style="fill:#FFFFFF"/>
	<rect x="3842.24" y="2164.46" width="95.47" height="4.93" style="fill:none;stroke:#808080;stroke-width:8.57"/>
	<rect x="3942.00" y="2167.02" width="104.04" height="6.66" style="fill:#FFFFFF"/>
	<rect x="3946.28" y="2171.30" width="95.47" height="-1.91" style="fill:none;stroke:#808080;stroke-width:8.57"/>
	<rect x="4046.04" y="2171.16" width="103.86" height="2.52" style="fill:#FFFFFF"/>
	<rect x="4050.32" y="2175.44" width="95.29" height="-6.05" style="fill:none;stroke:#808080;stroke-width:8.57"/>
	<rect x="4149.90" y="2172.60" width="104.04" height="1.08" style="fill:#FFFFFF"/>
	<rect x="4154.18" y="2176.88" width="95.47" height="-7.49" style="fill:none;stroke:#808080;stroke-width:8.57"/>
	<rect x="4357.98" y="2173.14" width="103.86" height="0.54" style="fill:#FFFFFF"/>
	<rect x="4362.26" y="2177.42" width="95.29" height="-8.03" style="fill:none;stroke:#808080;stroke-width:8.57"/>
	<rect x="482.22" y="3281.40" width="104.04" height="1.08" style="fill:#FFFFFF"/>
	<rect x="486.50" y="3285.68" width="95.47" height="-7.49" style="fill:none;stroke:#808080;stroke-width:8.57"/>
	<rect x="586.26" y="3280.86" width="104.04" height="1.62" style="fill:#FFFFFF"/>
	<rect x="590.54" y="3285.14" width="95.47" height="-6.95" style="fill:none;stroke:#808080;stroke-width:8.57"/>
	<rect x="690.30" y="3280.32" width="103.86" height="2.16" style="fill:#FFFFFF"/>
	<rect x="694.58" y="3284.60" width="95.29" height="-6.41" style="fill:none;stroke:#808080;stroke-width:8.57"/>
	<rect x="794.16" y="3278.70" width="104.04" height="3.78" style="fill:#FFFFFF"/>
	<rect x="798.44" y="3282.98" width="95.47" height="-4.79" style="fill:none;stroke:#808080;stroke-width:8.57"/>
	<rect x="898.20" y="3277.26" width="104.04" height="5.22" style="fill:#FFFFFF"/>
	<rect x="902.48" y="3281.54" width="95.47" height="-3.35" style="fill:none;stroke:#808080;stroke-width:8.57"/>
	<rect x="1002.24" y="3273.12" width="103.86" height="9.36" style="fill:#FFFFFF"/>
	<rect x="1006.52" y="3277.40" width="95.29" height="0.79" style="fill:none;stroke:#808080;stroke-width:8.57"/>
	<rect x="1106.10" y="3273.12" width="104.04" height="9.36" style="fill:#FFFFFF"/>
	<rect x="1110.38" y="3277.40" width="95.47" height="0.79" style="fill:none;stroke:#808080;stroke-width:8.57"/>
	<rect x="1210.14" y="3264.84" width="104.04" height="17.64" style="fill:#FFFFFF"/>
	<rect x="1214.42" y="3269.12" width="95.47" height="9.07" style="fill:none;stroke:#808080;stroke-width:8.57"/>
	<rect x="1314.18" y="3260.16" width="103.86" height="22.32" style="fill:#FFFFFF"/>
	<rect x="1318.46" y="3264.44" width="95.29" height="13.75" style="fill:none;stroke:#808080;stroke-width:8.57"/>
	<rect x="1418.04" y="3256.02" width="104.04" height="26.46" style="fill:#FFFFFF"/>
	<rect x="1422.32" y="3260.30" width="95.47" height="17.89" style="fill:none;stroke:#808080;stroke-width:8.57"/>
	<rect x="1522.08" y="3239.10" width="104.04" height="43.38" style="fill:#FFFFFF"/>
	<rect x="1526.36" y="3243.38" width="95.47" height="34.81" style="fill:none;stroke:#808080;stroke-width:8.57"/>
	<rect x="1626.12" y="3226.14" width="103.86" height="56.34" style="fill:#FFFFFF"/>
	<rect x="1630.40" y="3230.42" width="95.29" height="47.77" style="fill:none;stroke:#808080;stroke-width:8.57"/>
	<rect x="1729.98" y="3212.82" width="104.04" height="69.66" style="fill:#FFFFFF"/>
	<rect x="1734.26" y="3217.10" width="95.47" height="61.09" style="fill:none;stroke:#808080;stroke-width:8.57"/>
	<rect x="1834.02" y="3177.18" width="104.04" height="105.30" style="fill:#FFFFFF"/>
	<rect x="1838.30" y="3181.46" width="95.47" height="96.73" style="fill:none;stroke:#808080;stroke-width:8.57"/>
	<rect x="1938.06" y="3147.84" width="103.86" height="134.64" style="fill:#FFFFFF"/>
	<rect x="1942.34" y="3152.12" width="95.29" height="126.07" style="fill:none;stroke:#808080;stroke-width:8.57"/>
	<rect x="2041.92" y="3121.56" width="104.04" height="160.92" style="fill:#FFFFFF"/>
	<rect x="2046.20" y="3125.84" width="95.47" height="152.35" style="fill:none;stroke:#808080;stroke-width:8.57"/>
	<rect x="2145.96" y="3108.06" width="104.04" height="174.42" style="fill:#FFFFFF"/>
	<rect x="2150.24" y="3112.34" width="95.47" height="165.85" style="fill:none;stroke:#808080;stroke-width:8.57"/>
	<rect x="2250.00" y="3065.22" width="103.86" height="217.26" style="fill:#FFFFFF"/>
	<rect x="2254.28" y="3069.50" width="95.29" height="208.69" style="fill:none;stroke:#808080;stroke-width:8.57"/>
	<rect x="2353.86" y="3025.62" width="104.04" height="256.86" style="fill:#FFFFFF"/>
	<rect x="2358.14" y="3029.90" width="95.47" height="248.29" style="fill:none;stroke:#808080;stroke-width:8.57"/>
	<rect x="2457.90" y="3018.96" width="104.04" height="263.52" style="fill:#FFFFFF"/>
	<rect x="2462.18" y="3023.24" width="95.47" height="254.95" style="fill:none;stroke:#808080;stroke-width:8.57"/>
	<rect x="2561.94" y="2975.58" width="103.86" height="306.90" style="fill:#FFFFFF"/>
	<rect x="2566.22" y="2979.86" width="95.29" height="298.33" style="fill:none;stroke:#808080;stroke-width:8.57"/>
	<rect x="2665.80" y="2963.16" width="104.04" height="319.32" style="fill:#FFFFFF"/>
	<rect x="2670.08" y="2967.44" width="95.47" height="310.75" style="fill:none;stroke:#808080;stroke-width:8.57"/>
	<rect x="2769.84" y="2973.96" width="104.04" height="308.52" style="fill:#FFFFFF"/>
	<rect x="2774.12" y="2978.24" width="95.47" height="299.95" style="fill:none;stroke:#808080;stroke-width:8.57"/>
	<rect x="2873.88" y="2966.76" width="103.86" height="315.72" style="fill:#FFFFFF"/>
	<rect x="2878.16" y="2971.04" width="95.29" height="307.15" style="fill:none;stroke:#808080;stroke-width:8.57"/>
	<rect x="2977.74" y="2966.76" width="104.04" height="315.72" style="fill:#FFFFFF"/>
	<rect x="2982.02" y="2971.04" width="95.47" height="307.15" style="fill:none;stroke:#808080;stroke-width:8.57"/>
	<rect x="3081.78" y="2991.60" width="104.04" height="290.88" style="fill:#FFFFFF"/>
	<rect x="3086.06" y="2995.88" width="95.47" height="282.31" style="fill:none;stroke:#808080;stroke-width:8.57"/>
	<rect x="3185.82" y="3005.46" width="103.86" height="277.02" style="fill:#FFFFFF"/>
	<rect x="3190.10" y="3009.74" width="95.29" height="268.45" style="fill:none;stroke:#808080;stroke-width:8.57"/>
	<rect x="3289.68" y="3019.32" width="104.04" height="263.16" style="fill:#FFFFFF"/>
	<rect x="3293.96" y="3023.60" width="95.47" height="254.59" style="fill:none;stroke:#808080;stroke-width:8.57"/>
	<rect x="3393.72" y="3054.42" width="104.04" height="228.06" style="fill:#FFFFFF"/>
	<rect x="3398.00" y="3058.70" width="95.47" height="219.49" style="fill:none;stroke:#808080;stroke-width:8.57"/>
	<rect x="3497.76" y="3066.30" width="103.86" height="216.18" style="fill:#FFFFFF"/>
	<rect x="3502.04" y="3070.58" width="95.29" height="207.61" style="fill:none;stroke:#808080;stroke-width:8.57"/>
	<rect x="3601.62" y="3108.60" width="104.04" height="173.88" style="fill:#FFFFFF"/>
	<rect x="3605.90" y="3112.88" width="95.47" height="165.31" style="fill:none;stroke:#808080;stroke-width:8.57"/>
	<rect x="3705.66" y="3137.04" width="104.04" height="145.44" style="fill:#FFFFFF"/>
	<rect x="3709.94" y="3141.32" width="95.47" height="136.87" style="fill:none;stroke:#808080;stroke-width:8.57"/>
	<rect x="3809.70" y="3159.72" width="103.86" height="122.76" style="fill:#FFFFFF"/>
	<rect x="3813.98" y="3164.00" width="95.29" height="114.19" style="fill:none;stroke:#808080;stroke-width:8.57"/>
	<rect x="3913.56" y="3206.52" width="104.04" height="75.96" style="fill:#FFFFFF"/>
	<rect x="3917.84" y="3210.80" width="95.47" height="67.39" style="fill:none;stroke:#808080;stroke-width:8.57"/>
	<rect x="4017.60" y="3217.86" width="104.04" height="64.62" style="fill:#FFFFFF"/>
	<rect x="4021.88" y="3222.14" width="95.47" height="56.05" style="fill:none;stroke:#808080;stroke-width:8.57"/>
	<rect x="4121.64" y="3232.98" width="103.86" height="49.50" style="fill:#FFFFFF"/>
	<rect x="4125.92" y="3237.26" width="95.29" height="40.93" style="fill:none;stroke:#808080;stroke-width:8.57"/>
	<rect x="4225.50" y="3250.98" width="104.04" height="31.50" style="fill:#FFFFFF"/>
	<rect x="4229.78" y="3255.26" width="95.47" height="22.93" style="fill:none;stroke:#808080;stroke-width:8.57"/>
	<rect x="4329.54" y="3257.64" width="104.04" height="24.84" style="fill:#FFFFFF"/>
	<rect x="4333.82" y="3261.92" width="95.47" height="16.27" style="fill:none;stroke:#808080;stroke-width:8.57"/>
	<rect x="4433.58" y="3268.98" width="103.86" height="13.50" style="fill:#FFFFFF"/>
	<rect x="4437.86" y="3273.26" width="95.29" height="4.93" style="fill:none;stroke:#808080;stroke-width:8.57"/>
	<rect x="4537.44" y="3271.14" width="104.04" height="11.34" style="fill:#FFFFFF"/>
	<rect x="4541.72" y="3275.42" width="95.47" height="2.77" style="fill:none;stroke:#808080;stroke-width:8.57"/>
	<rect x="4641.48" y="3274.74" width="104.04" height="7.74" style="fill:#FFFFFF"/>
	<rect x="4645.76" y="3279.02" width="95.47" height="-0.83" style="fill:none;stroke:#808080;stroke-width:8.57"/>
	<rect x="4745.52" y="3277.26" width="103.86" height="5.22" style="fill:#FFFFFF"/>
	<rect x="4749.80" y="3281.54" width="95.29" height="-3.35" style="fill:none;stroke:#808080;stroke-width:8.57"/>
	<rect x="4849.38" y="3276.72" width="104.04" height="5.76" style="fill:#FFFFFF"/>
	<rect x="4853.66" y="3281.00" width="95.47" height="-2.81" style="fill:none;stroke:#808080;stroke-width:8.57"/>
	<rect x="4953.42" y="3279.78" width="104.04" height="2.70" style="fill:#FFFFFF"/>
	<rect x="4957.70" y="3284.06" width="95.47" height="-5.87" style="fill:none;stroke:#808080;stroke-width:8.57"/>
	<rect x="5057.46" y="3279.24" width="103.86" height="3.24" style="fill:#FFFFFF"/>
	<rect x="5061.74" y="3283.52" width="95.29" height="-5.33" style="fill:none;stroke:#808080;stroke-width:8.57"/>
	<rect x="5161.32" y="3281.94" width="104.04" height="0.54" style="fill:#FFFFFF"/>
	<rect x="5165.60" y="3286.22" width="95.47" height="-8.03" style="fill:none;stroke:#808080;stroke-width:8.57"/>
	<rect x="5265.36" y="3281.40" width="104.04" height="1.08" style="fill:#FFFFFF"/>
	<rect x="5269.64" y="3285.68" width="95.47" height="-7.49" style="fill:none;stroke:#808080;stroke-width:8.57"/>
	<rect x="1270.98" y="4390.20" width="104.04" height="0.90" style="fill:#FFFFFF"/>
	<rect x="1275.26" y="4394.48" width="95.47" height="-7.67" style="fill:none;stroke:#808080;stroke-width:8.57"/>
	<rect x="1478.88" y="4390.56" width="104.04" height="0.54" style="fill:#FFFFFF"/>
	<rect x="1483.16" y="4394.84" width="95.47" height="-8.03" style="fill:none;stroke:#808080;stroke-width:8.57"/>
	<rect x="1582.92" y="4389.66" width="104.04" height="1.44" style="fill:#FFFFFF"/>
	<rect x="1587.20" y="4393.94" width="95.47" height="-7.13" style="fill:none;stroke:#808080;stroke-width:8.57"/>
	<rect x="1686.96" y="4386.06" width="103.86" height="5.04" style="fill:#FFFFFF"/>
	<rect x="1691.24" y="4390.34" width="95.29" height="-3.53" style="fill:none;stroke:#808080;stroke-width:8.57"/>
	<rect x="1790.82" y="4378.32" width="104.04" height="12.78" style="fill:#FFFFFF"/>
	<rect x="1795.10" y="4382.60" width="95.47" height="4.21" style="fill:none;stroke:#808080;stroke-width:8.57"/>
	<rect x="1894.86" y="4374.18" width="104.04" height="16.92" style="fill:#FFFFFF"/>
	<rect x="1899.14" y="4378.46" width="95.47" height="8.35" style="fill:none;stroke:#808080;stroke-width:8.57"/>
	<rect x="1998.90" y="4346.28" width="103.86" height="44.82" style="fill:#FFFFFF"/>
	<rect x="2003.18" y="4350.56" width="95.29" height="36.25" style="fill:none;stroke:#808080;stroke-width:8.57"/>
	<rect x="2102.76" y="4306.14" width="104.04" height="84.96" style="fill:#FFFFFF"/>
	<rect x="2107.04" y="4310.42" width="95.47" height="76.39" style="fill:none;stroke:#808080;stroke-width:8.57"/>
	<rect x="2206.80" y="4273.02" width="104.04" height="118.08" style="fill:#FFFFFF"/>
	<rect x="2211.08" y="4277.30" width="95.47" height="109.51" style="fill:none;stroke:#808080;stroke-width:8.57"/>
	<rect x="2310.84" y="4203.00" width="103.86" height="188.10" style="fill:#FFFFFF"/>
	<rect x="2315.12" y="4207.28" width="95.29" height="179.53" style="fill:none;stroke:#808080;stroke-width:8.57"/>
	<rect x="2414.70" y="4099.86" width="104.04" height="291.24" style="fill:#FFFFFF"/>
	<rect x="2418.98" y="4104.14" width="95.47" height="282.67" style="fill:none;stroke:#808080;stroke-width:8.57"/>
	<rect x="2518.74" y="3974.04" width="104.04" height="417.06" style="fill:#FFFFFF"/>
	<rect x="2523.02" y="3978.32" width="95.47" height="408.49" style="fill:none;stroke:#808080;stroke-width:8.57"/>
	<rect x="2622.78" y="3891.42" width="103.86" height="499.68" style="fill:#FFFFFF"/>
	<rect x="2627.06" y="3895.70" width="95.29" height="491.11" style="fill:none;stroke:#808080;stroke-width:8.57"/>
	<rect x="2726.64" y="3839.40" width="104.04" height="551.70" style="fill:#FFFFFF"/>
	<rect x="2730.92" y="3843.68" width="95.47" height="543.13" style="fill:none;stroke:#808080;stroke-width:8.57"/>
	<rect x="2830.68" y="3806.82" width="104.04" height="584.28" style="fill:#FFFFFF"/>
	<rect x="2834.96" y="3811.10" width="95.47" height="575.71" style="fill:none;stroke:#808080;stroke-width:8.57"/>
	<rect x="2934.72" y="3855.42" width="103.86" height="535.68" style="fill:#FFFFFF"/>
	<rect x="2939.00" y="3859.70" width="95.29" height="527.11" style="fill:none;stroke:#808080;stroke-width:8.57"/>
	<rect x="3038.58" y="3895.56" width="104.04" height="495.54" style="fill:#FFFFFF"/>
	<rect x="3042.86" y="3899.84" width="95.47" height="486.97" style="fill:none;stroke:#808080;stroke-width:8.57"/>
	<rect x="3142.62" y="3974.94" width="104.04" height="416.16" style="fill:#FFFFFF"/>
	<rect x="3146.90" y="3979.22" width="95.47" height="407.59" style="fill:none;stroke:#808080;stroke-width:8.57"/>
	<rect x="3246.66" y="4051.80" width="103.86" height="339.30" style="fill:#FFFFFF"/>
	<rect x="3250.94" y="4056.08" width="95.29" height="330.73" style="fill:none;stroke:#808080;stroke-width:8.57"/>
	<rect x="3350.52" y="4168.98" width="104.04" height="222.12" style="fill:#FFFFFF"/>
	<rect x="3354.80" y="4173.26" width="95.47" height="213.55" style="fill:none;stroke:#808080;stroke-width:8.57"/>
	<rect x="3454.56" y="4240.08" width="104.04" height="151.02" style="fill:#FFFFFF"/>
	<rect x="3458.84" y="4244.36" width="95.47" height="142.45" style="fill:none;stroke:#808080;stroke-width:8.57"/>
	<rect x="3558.60" y="4304.52" width="103.86" height="86.58" style="fill:#FFFFFF"/>
	<rect x="3562.88" y="4308.80" width="95.29" height="78.01" style="fill:none;stroke:#808080;stroke-width:8.57"/>
	<rect x="3662.46" y="4345.20" width="104.04" height="45.90" style="fill:#FFFFFF"/>
	<rect x="3666.74" y="4349.48" width="95.47" height="37.33" style="fill:none;stroke:#808080;stroke-width:8.57"/>
	<rect x="3766.50" y="4361.76" width="104.04" height="29.34" style="fill:#FFFFFF"/>
	<rect x="3770.78" y="4366.04" width="95.47" height="20.77" style="fill:none;stroke:#808080;stroke-width:8.57"/>
	<rect x="3870.54" y="4382.46" width="103.86" height="8.64" style="fill:#FFFFFF"/>
	<rect x="3874.82" y="4386.74" width="95.29" height="0.07" style="fill:none;stroke:#808080;stroke-width:8.57"/>
	<rect x="3974.40" y="4383.90" width="104.04" height="7.20" style="fill:#FFFFFF"/>
	<rect x="3978.68" y="4388.18" width="95.47" height="-1.37" style="fill:none;stroke:#808080;stroke-width:8.57"/>
	<rect x="4078.44" y="4389.66" width="104.04" height="1.44" style="fill:#FFFFFF"/>
	<rect x="4082.72" y="4393.94" width="95.47" height="-7.13" style="fill:none;stroke:#808080;stroke-width:8.57"/>
	<line x1="295.38" y1="4485.42" x2="295.38" y2="4485.42" style="stroke:#C0C0C0;stroke-width:6.43"/>
	<text x="295.38" y="4619.11" style="font-family:'Open Sans';font-size:148.68px;fill:#000000" text-anchor="middle">-1</text>
	<line x1="1595.16" y1="4485.42" x2="1595.16" y2="4485.42" style="stroke:#C0C0C0;stroke-width:6.43"/>
	<text x="1595.16" y="4619.11" style="font-family:'Open Sans';font-size:148.68px;fill:#000000" text-anchor="middle">-.5</text>
	<line x1="2894.94" y1="4485.42" x2="2894.94" y2="4485.42" style="stroke:#C0C0C0;stroke-width:6.43"/>
	<text x="2894.94" y="4619.11" style="font-family:'Open Sans';font-size:148.68px;fill:#000000" text-anchor="middle">0</text>
	<line x1="4194.72" y1="4485.42" x2="4194.72" y2="4485.42" style="stroke:#C0C0C0;stroke-width:6.43"/>
	<text x="4194.72" y="4619.11" style="font-family:'Open Sans';font-size:148.68px;fill:#000000" text-anchor="middle">.5</text>
	<line x1="5494.32" y1="4485.42" x2="5494.32" y2="4485.42" style="stroke:#C0C0C0;stroke-width:6.43"/>
	<text x="5494.32" y="4619.11" style="font-family:'Open Sans';font-size:148.68px;fill:#000000" text-anchor="middle">1</text>
	<rect x="205.34" y="175.64" width="5379.01" height="206.53" style="fill:none;stroke:#FFFFFF;stroke-width:8.57"/>
	<text x="2894.94" y="311.54" style="font-family:'Open Sans';font-size:163.62px;fill:#000000" text-anchor="middle">Fixed x, simple</text>
	<rect x="205.34" y="1284.44" width="5379.01" height="206.35" style="fill:none;stroke:#FFFFFF;stroke-width:8.57"/>
	<text x="2894.94" y="1420.34" style="font-family:'Open Sans';font-size:163.62px;fill:#000000" text-anchor="middle">Fixed x, stratified</text>
	<rect x="205.34" y="2393.06" width="5379.01" height="206.53" style="fill:none;stroke:#FFFFFF;stroke-width:8.57"/>
	<text x="2894.94" y="2528.96" style="font-family:'Open Sans';font-size:163.62px;fill:#000000" text-anchor="middle">Random x, simple</text>
	<rect x="205.34" y="3501.86" width="5379.01" height="206.53" style="fill:none;stroke:#FFFFFF;stroke-width:8.57"/>
	<text x="2894.94" y="3637.76" style="font-family:'Open Sans';font-size:163.62px;fill:#000000" text-anchor="middle">Random x, stratified</text>
	<text x="2880.00" y="4876.54" style="font-family:'Open Sans';font-size:174.96px;fill:#000000" text-anchor="middle">Difference in mean y between arms</text>
</svg>
